<svg xmlns="http://www.w3.org/2000/svg" version="1.1" xmlns:xlink="http://www.w3.org/1999/xlink" xmlns:svgjs="http://svgjs.dev/svgjs" width="1440" height="560" preserveAspectRatio="none" viewBox="0 0 1440 560"><g mask="url(&quot;#SvgjsMask1000&quot;)" fill="none"><rect width="1440" height="560" x="0" y="0" fill="#0e2a47"></rect><circle r="5.14" cx="1232.01" cy="436.68" filter="url(#SvgjsFilter1001)" fill="rgba(51, 121, 194, 0.58)"></circle><circle r="7.185" cx="748.375" cy="239.29500000000002" filter="url(#SvgjsFilter1001)" fill="rgba(51, 121, 194, 0.58)"></circle><circle r="6.835" cx="29.035" cy="450.565" filter="url(#SvgjsFilter1001)" fill="rgba(51, 121, 194, 0.58)"></circle><circle r="8.595" cx="163.275" cy="480.545" filter="url(#SvgjsFilter1001)" fill="rgba(51, 121, 194, 0.58)"></circle><circle r="5.94" cx="513.89" cy="147.19" filter="url(#SvgjsFilter1001)" fill="rgba(51, 121, 194, 0.58)"></circle><circle r="6.385" cx="607.685" cy="361.795" filter="url(#SvgjsFilter1001)" fill="rgba(51, 121, 194, 0.58)"></circle><circle r="8.98" cx="1101.43" cy="348.46000000000004" filter="url(#SvgjsFilter1001)" fill="rgba(51, 121, 194, 0.58)"></circle><circle r="7.21" cx="814.26" cy="240.26000000000002" filter="url(#SvgjsFilter1001)" fill="rgba(51, 121, 194, 0.58)"></circle><circle r="6.405" cx="382.335" cy="177.795" filter="url(#SvgjsFilter1001)" fill="rgba(51, 121, 194, 0.58)"></circle><circle r="7.8" cx="1104.72" cy="30.330000000000002" filter="url(#SvgjsFilter1001)" fill="rgba(51, 121, 194, 0.58)"></circle><circle r="6.075" cx="847.575" cy="364.055" filter="url(#SvgjsFilter1001)" fill="rgba(51, 121, 194, 0.58)"></circle><circle r="7.635" cx="1350.905" cy="364.065" filter="url(#SvgjsFilter1001)" fill="rgba(51, 121, 194, 0.58)"></circle><circle r="5.28" cx="283.53" cy="19.69" filter="url(#SvgjsFilter1001)" fill="rgba(51, 121, 194, 0.58)"></circle><circle r="7.515" cx="1308.885" cy="391.715" filter="url(#SvgjsFilter1001)" fill="rgba(51, 121, 194, 0.58)"></circle><circle r="7.145" cx="1045.415" cy="284.625" filter="url(#SvgjsFilter1001)" fill="rgba(51, 121, 194, 0.58)"></circle><circle r="4.81" cx="573.42" cy="338.35" filter="url(#SvgjsFilter1001)" fill="rgba(51, 121, 194, 0.58)"></circle><circle r="5.165" cx="1002.355" cy="342.58500000000004" filter="url(#SvgjsFilter1001)" fill="rgba(51, 121, 194, 0.58)"></circle><circle r="8.28" cx="505.05999999999995" cy="360.33" filter="url(#SvgjsFilter1001)" fill="rgba(51, 121, 194, 0.58)"></circle><circle r="7.475" cx="1282.495" cy="380.65500000000003" filter="url(#SvgjsFilter1001)" fill="rgba(51, 121, 194, 0.58)"></circle><circle r="6.54" cx="1322.21" cy="413.73" filter="url(#SvgjsFilter1001)" fill="rgba(51, 121, 194, 0.58)"></circle><path d="M408.7 218.2L414.9 268.9 403.1 283.4 401 266.2C401.3 264.3 399.5 263.4 397.6 263.2 396.3 263.6 394.7 265.3 395.2 266.7L397.5 290.3 386.3 304.8 379.8 287.7 389.5 265.8C389.5 265.8 389.6 265.2 389.6 265.2 389.7 263.9 388.7 262.5 387.5 261.7 385.6 261.4 384.2 261.8 383.3 263.6L376.5 279.5 369.9 262.3 389.7 215.4C389.7 215.4 390.4 214.9 390.4 214.9 390.6 213.6 389.5 212.2 388.4 211.3 386.6 210.4 384.5 211.4 384.2 213.3L366.6 254.1 358 233.4 365.8 215.2C365.8 215.2 365.8 215.2 365.9 214.5 366.1 213.3 365.7 211.9 364.5 211.1 362.6 210.8 360.6 211.2 359.7 213L354.7 225.2 348.5 210C348.1 208 346.2 207.8 344.8 208.2 342.9 208.6 341.9 210.4 342.9 212.5L348.5 227.5 337 221.9C335.1 221.7 333.1 222 332.8 223.9 331.9 225.7 332.4 227.1 334.2 228L352.4 235.8 360.4 256.4 319 238.7C317.9 237.9 315.8 238.9 314.9 240.7 314.7 242 315 244 316.8 244.9L363.8 264.7 370.3 281.8 354.5 275C352.7 274 351.2 275.1 350.3 276.9 349.5 278.1 350.5 280.2 351.7 281L373.6 290 380.8 307.3 362.4 304.6 348.4 285.7C347.3 284.3 345.4 284 344 285.1 342.6 285.5 342.2 288 343.3 289.5L353.6 303.3 335.2 300.6 305 259.3C304 257.9 302.1 257.6 300.6 258.7 299.2 259.7 298.9 261.6 300 263.1L326.4 299.3 304.8 296.2 292.9 280.2C291.8 278.7 289.9 278.5 288.5 279.5 287 280.6 286.8 282.5 287.8 284L295.3 294.8 279.5 292.4C277.6 292.2 276.1 293.3 275.9 295.2 275.6 297.1 276.7 298.5 278.6 298.8L294.4 301.1 284.2 308.7C282.8 309.7 282.5 311.6 283.6 313.1S286.6 314.8 288 313.7L303.3 302.4 325.4 305.6 289.9 332.1C288.4 333.2 288.1 335.1 289.2 336.6 290.3 338 292.2 338.3 293.6 337.2L334.3 306.9 352.7 309.6 338.9 319.9C337.4 321 337.1 322.9 338.2 324.3 339.3 325.8 341.2 326 342.7 325L361.5 310.9 379.3 313.5 368.2 327.4 344.4 330.4C343.1 330.9 341.5 332.6 342 333.9 342.3 335.9 343.5 336.7 345.4 337L362.5 335 351.4 348.9 300.7 355.1C298.7 355.4 297.9 356.6 297.6 358.5 298 360.5 299.8 361.4 301.1 361.6L345.8 356.5 331.6 373.8 312.5 376.2C310.6 375.9 309.7 377.7 309.4 379.6 309.9 381 311.6 382.5 313.6 382.2L326.1 380.8 316.4 393.6C315 394.7 315.4 396.7 317.1 398.2 318.2 399 320.2 398.7 321 397.5L331.3 384.8 332.6 397.9C333 399.9 334.8 400.8 336.2 400.3 338.1 400.6 338.9 399.4 339.1 398.2 339.2 397.5 339.2 397.5 339.2 396.9L336.9 377.8 351 360.5 356.2 404.6C356 406.5 357.8 407.4 359.7 407.7 361 407.2 361.8 406 362 404.8 362.1 404.1 362.1 404.1 362.1 404.1L356.7 352.9 367.8 339 369.8 356.1C370.1 358.1 371.3 358.9 373.2 359.2 374.6 358.7 376 357.7 376.2 356.4 376.3 355.8 376.3 355.8 376.4 355.1L373.4 331.4 384.5 317.5 391.1 334 382.1 356C381.2 357.8 382.2 359.9 383.4 360.7 385.3 361 387.2 360.6 387.5 358.7L394.4 342.9 401.6 359.5 381.1 406.9C380.3 408.1 381.3 410.2 382.5 411 384.4 411.3 386.4 410.9 387.3 409.1L404.9 368.3 412.9 388.9 405.1 406.5C404.2 408.4 405.2 410.4 407.1 410.7 408.3 411.5 410.2 411.2 411.2 409.4L416.2 397.2 422.4 412.3C422.8 413.7 424.6 414.6 426.6 414.2 427.3 413.7 428.2 412.5 428.3 411.2 428.3 411.2 428.4 410.6 428.5 410L422.3 394.8 434.5 399.9C435.7 400.7 437.8 399.7 438.6 398.5 438.7 397.9 438.7 397.9 438.7 397.9 439 396 437.9 394.5 436.6 394.3L419 386.6 410.4 365.9 451.8 383.6C453.7 383.9 455.1 383.4 456 381.6 456 381.6 456.1 381 456.1 381 456.2 379.7 455.8 378.4 454 377.5L407.2 357 400.5 340.5 416.3 347.4C418.2 347.7 420.2 347.3 420.5 345.4 421.1 345.5 421.2 344.9 421.2 344.9 421.4 343.6 420.3 342.2 419.2 341.3L397.2 332.3 390.7 315.2 408.4 317.8 422.4 336.6C423.5 338.1 426.1 338.5 427.5 337.4 428.3 336.2 428.6 334.3 428.2 332.9L417.3 319.1 435.6 321.7 465.9 362.4C467 363.8 468.9 364.1 470.3 363 471.8 362 472.1 360.1 471 358.6L444.5 323 466.6 326.3 478 341.5C479.1 343 481 343.3 482.4 342.2S484.2 339.2 483.1 337.7L475.5 327.6 491.3 329.9C493.2 330.2 494.7 329.1 495 327.2 495.2 325.3 494.2 323.8 492.3 323.6L476.4 321.2 486.7 313C487.4 312.5 488.1 312 488.2 311.3 488.3 310.7 487.9 309.3 487.3 308.6 486.3 307.2 484.4 306.9 482.9 308L467.6 320 445.4 316.7 481.1 289.6C481.8 289 482.5 288.5 482.6 287.9 482.7 287.2 482.3 285.9 481.7 285.2 480.6 283.7 478.7 283.4 477.3 284.5L436.5 315.4 418.2 312.7 432.6 302.5C433.3 302 433.5 300.7 433.6 300.1 433.7 299.5 433.8 298.8 433.2 298.1 432.2 296.7 429.6 296.3 428.8 297.5L409.3 311.4 391.6 308.8 402.8 294.3 426.4 291.9C427.8 291.5 429.2 290.4 429.4 289.1 429.5 288.5 429.5 288.5 428.8 288.4 429.1 286.5 427.4 285 425.4 285.3L408.3 287.4 419.5 272.8 470.7 267.4C472.1 266.9 472.9 265.8 473.1 264.5 473.2 263.9 473.2 263.9 473.2 263.9 472.8 261.9 471.8 260.4 469.8 260.8L425 265.9 439.2 248.5 458.3 246.2C460.3 245.8 461.1 244.6 461.3 243.4 461.3 243.4 461.4 242.7 461.4 242.7 461 240.7 459.2 239.8 458 239.6L444.8 241.6 455 228.9C455.1 228.2 455.2 227.6 455.3 227 455.4 226.3 454.9 225 454.4 224.2 452.6 223.3 450.7 223.1 449.8 224.9L439.5 237.6 438.2 224.5C437.8 222.5 436 221.6 434.8 221.4 432.8 221.7 431.9 223.5 431.6 225.4L434 244.5 420.4 262 415.2 217.9C414.9 215.9 413.2 214.3 411.8 214.8 409.8 215.1 408.4 216.2 408.7 218.2Z" fill="rgba(51, 121, 194, 0.58)"></path><path d="M704.7 388.1L725.1 378.9 724.3 392.4C724.1 393.8 725.3 395.4 727.3 396 729 395.7 730.7 394.5 730.3 392.7L731.9 375.9 747.5 368 744.2 403.1C744.5 404.9 745.7 406.5 747.1 406.7 749.4 406.7 751 405.5 750.7 403.7L754.3 364.9 778.5 353.6 772.4 383.7 798.4 367.5 796.3 394.1 761.2 411C760.7 410.7 760.3 411.2 760 411.7 759.3 412.8 759.1 414.2 759.7 415.4 760.4 416.7 762.4 417.3 764.1 416.9L795.9 401.5 793.9 418.9 778.7 426.3C777.8 426.4 777.5 426.9 777.1 427.5 776.7 428 776.5 429.4 777.2 430.7 777.9 431.9 779.8 432.5 781.1 431.8L793.4 426.4 792 448.7C791.4 450.6 793 451.7 794.9 452.3 796.3 452.5 798 451.3 798 449L800 427 811 434.7C812.6 435.8 814.8 434.9 815.5 433.9 816.6 432.3 816.3 430.5 814.7 429.4L800.5 419.6 802.4 402.2 830.8 421.9C832.4 423 834.2 422.7 835.3 421.1 836 420 836 417.7 834.5 416.6L802.9 394.8 805 368.2 827.9 387.9 827 357.7 849.1 373.1 845.9 411.3C845.9 413.7 847.5 414.8 848.9 415 850.3 415.2 851.9 413.9 852.5 412L854.9 377.1 869.1 386.9 868.1 404.1C867.5 406.1 868.7 407.7 871 407.7 872.4 407.9 874.1 406.7 874.1 404.4L875.4 391.3 893.8 404.1C895.4 405.2 897.2 404.8 898.3 403.3S899 399.9 897.5 398.8L879.1 386 890.9 380.2C893 379.4 893.6 377.4 892.9 376.2 892.1 374 890.1 373.5 888.5 374.7L872.7 381.7 858.5 371.8 890.4 357.3C892 356.1 892.6 354.2 891.9 352.9 891.1 350.8 889.1 350.2 887.5 351.4L852.8 367.8 830.7 352.5 859.3 342.7 832.7 328.2 856.9 316.9 888.4 338.8C890 339.9 892.2 339.1 892.9 338 894 336.4 893.7 334.6 892.1 333.6L863.2 313.5 879.3 306 893.5 315.8C895.1 316.9 896.8 316.6 897.9 315 898.7 314 898.7 311.7 897.1 310.6L886.1 302.9 906 293.3C908.1 292.5 908.7 290.5 907.5 288.9 906.8 287.7 905.2 286.6 903.6 287.8L883.2 297 884 283.5C884.2 282.1 883 280.5 881.5 280.3 880.1 280.1 878.9 280.8 878.5 281.3 878.1 281.8 877.8 282.3 877.9 283.2L876.4 300.1 860.8 307.9 864.1 272.9C863.8 271.1 862.6 269.5 861.2 269.2 859.7 269 858.5 269.7 857.7 270.8 857.4 271.3 857.4 271.3 857.5 272.2L854 311 829.8 322.3 835.9 292.2 809.8 308.4 811.9 281.8 847 264.9C848.3 264.2 849.4 262.6 848.5 260.5 847.8 259.2 845.9 258.7 844.1 259L812.4 274.4 814.3 257 829.6 249.7C831.3 249.3 831.9 247.4 831.1 245.3 830.4 244 828.4 243.4 826.6 243.8L814.8 249.6 816.3 227.2C816.9 225.3 815.3 224.2 813.4 223.6 812.5 223.8 811.2 224.5 810.8 225 810.5 225.5 810.1 226.1 810.3 226.9L808.3 248.9 797.2 241.3C795.6 240.2 793.5 241 792.8 242.1L792.8 242.1C791.7 243.6 792 245.4 793.6 246.5L807.8 256.4 805.9 273.7 777.5 254C775.9 252.9 774.1 253.3 773 254.8S772.2 258.2 773.8 259.3L805.4 281.2 803.3 307.8 780.4 288 781.2 318.2 759.2 302.9 762.4 264.6C762.4 262.3 760.8 261.2 759.4 261 758 260.8 756.4 262 755.8 263.9L752.8 298.5 739.2 289 740.2 271.8C740.8 269.9 739.6 268.2 737.3 268.2 735.8 268 734.2 269.2 733.6 271.1L732.9 284.6 714.5 271.9C712.9 270.8 711.1 271.1 710 272.7S709.2 276 710.8 277.1L729.2 289.9 717.4 295.7C716.5 295.9 716.1 296.4 715.8 296.9 715 298 715.2 298.9 715.4 299.7 716.2 301.9 718.2 302.5 719.8 301.3L735.5 294.3 749.7 304.1 717.9 318.6C717.5 319.1 717.1 319.7 716.8 320.2 716 321.2 716.2 322.1 716.4 323 717.2 325.2 719.1 325.7 720.8 324.5L755.5 308.1 777.6 323.4 749 333.2 775.5 347.7 751.4 359 719.8 337.1C718.2 336 716.1 336.9 715.4 337.9 714.3 339.5 714.6 341.3 716.2 342.4L744.6 362.1 729 370 714.8 360.1C713.2 359 711.4 359.3 710.3 360.9S709.6 364.3 711.1 365.4L722.2 373 702.3 382.6C701.4 382.8 701 383.3 700.7 383.8 700.3 384.3 700.1 385.7 700.8 387 701.5 388.3 703.1 389.4 704.7 388.1ZM764.4 334.6L787.8 326.7 787 302 806.1 318.3 826.8 305.4 822.4 329.6 843.8 341.4 820.4 349.3 821.2 374 802.7 358 781.5 370.6 786.4 346.7 764.4 334.6Z" fill="rgba(51, 121, 194, 0.58)"></path><path d="M551.7 68.4L552.1 94.9 547.2 100.2 531.3 96.3 529.1 89.2 542.1 66C542.2 65.7 542.2 65.7 542.2 65.4 542.4 64.8 542.2 64.1 541.4 63.5 540.4 63.3 539.7 63.5 539.2 64.3L527.9 84.6 524.7 73.6 529.6 64.6C529.6 64.6 529.7 64.3 529.7 64.3 529.8 63.7 529.7 63 528.8 62.4 528.3 62 527.2 62.4 526.6 63.2L523.2 69 521 60.8C520.8 60.1 519.9 59.6 518.9 59.7S517.6 61 517.7 62L520.1 69.8 514.2 66.7C513.4 66.2 512.3 66.6 511.7 67.4 511.6 68.1 511.7 69.1 512.5 69.6L521.5 74.5 524.7 85.8 504.4 74.5C503.5 74 502.4 74.4 502 74.9 501.8 75.9 501.8 76.9 502.7 77.4L525.9 90.1 528.1 97.5 517 109 509.5 107.1 495.7 84.6C495.2 83.8 494.3 83.6 493.5 84S492.5 85.4 492.9 86.2L505.2 106 493.7 103.2 488.5 94.7C488.1 93.9 487.1 93.7 486.1 94.1S485.1 95.5 485.5 96.2L489.3 102.1 481 100.1C480 99.8 479.2 100.6 478.9 101.5 478.7 102.5 479.2 103.3 480.1 103.5L488.5 105.6 482.7 109.1C481.6 109.5 481.4 110.4 482.2 111.2 482.6 112 483.6 112.2 484.3 111.8L492.9 106.6 504.3 109.5 484.3 121.3C483.5 121.8 483.2 123 483.7 123.8S485.1 124.8 485.8 124.3L508.7 110.5 516.2 112.4 520.6 128 515.3 133.2 488.8 133.6C487.8 133.7 487.3 134.6 487 135.5 487.1 136.5 488 137.1 488.9 137.3L512.1 136.8 504.2 145 493.9 145.1C492.9 145.2 492.4 146.1 492.1 147 492.3 147.7 493.1 148.5 494.1 148.5L500.7 148.4 494.9 154.6C494.4 155.1 494.5 156.1 495 156.9 495.8 157.4 496.8 157.4 497.3 156.8L503.1 150.7 503.3 157.7C503.5 158.4 504.3 159.2 505 159 505.9 159.3 506.4 158.7 506.6 157.8 506.6 157.8 506.7 157.5 506.7 157.5L506.6 147.2 514.5 139 515.1 162.2C515.2 163.2 515.6 164 516.6 163.9 517.6 163.8 518.1 163.3 518.3 162.7 518.3 162.3 518.3 162.3 518.3 162.3L517.7 135.5 523 130.2 538.8 134.1 540.7 141.2 528 164.7C527.5 165.3 527.9 166.3 528.4 166.8 529.3 167.4 530.4 167 530.9 166.1L542.2 145.8 545.4 156.8 540.5 165.8C540 166.7 540.1 167.7 541 167.9 541.9 168.5 543 168.1 543.4 167.5L546.6 161.4 548.9 169.5C549.3 170.3 550.2 170.9 551.2 170.8 551.6 170.5 552 170 552.2 169.4 552.3 169.1 552.3 169.1 552 168.7L549.8 160.5 555.9 163.7C556.8 164.2 557.5 163.8 558 163.2 558.1 162.9 558.1 162.9 558.2 162.6 558.3 162 558.1 161.3 557.6 160.8L548.6 156 545.4 144.9 565.7 156.2C566.6 156.4 567.6 156.4 567.8 155.4 568.2 155.2 568.2 155.2 568.3 154.9 568.4 154.3 568 153.5 567.4 153L543.9 140.3 542 133.2 553.1 121.5 560.3 123.2 574.1 146.1C574.6 146.9 575.8 147.2 576.6 146.7S577.7 145 577.2 144.2L564.9 124.4 576.1 127.2 581.6 135.8C582 136.5 583 136.8 583.8 136.3 584.5 135.8 584.8 134.9 584.3 134.1L580.8 128.3 589.2 130.4C589.8 130.5 590.9 130.1 591.1 129.2 591.3 128.3 590.6 127.1 590 127L581.6 124.9 587.4 121.4C587.8 121.1 588.2 120.9 588.3 120.6 588.4 120 588.2 119.6 588 119.2 587.5 118.4 586.6 118.2 585.8 118.7L577 123.7 565.8 121 585.8 109.1C586.2 108.9 586.3 108.6 586.5 107.9 586.5 107.6 586.6 107.3 586.4 106.9 585.9 106.2 584.7 105.9 583.9 106.3L561.1 119.8 554 118.1 549.5 102.8 554.5 97.1 581.3 96.8C582 96.6 582.8 96.2 582.9 95.5 583 95.2 583 95.2 582.7 95.2 582.9 94.2 582.1 93.4 581.1 93.5L557.9 94 566 85.4 576.2 85.3C576.9 85.2 577.4 84.6 577.5 84 577.5 84 577.6 83.7 577.6 83.7 577.8 82.8 577.1 81.9 576 82L569.1 82.2 574.9 76.1C575.3 75.9 575.3 75.5 575.4 75.2 575.6 74.6 575.4 73.9 575.1 73.8 574.3 73 573.3 73.1 572.5 73.5L566.7 79.7 566.7 73.1C566.6 72.1 565.8 71.2 564.8 71.3 564.1 71.5 563.3 72.2 563.4 72.9L563.6 83.2 555.6 91.4 555 68.2C555 67.2 554.1 66.7 553.2 66.5 552.5 66.6 551.6 67.4 551.7 68.4ZM532.3 100.2L544.5 103.2 546.3 103.7 546.9 105.4 550.2 117.1 550.7 119.2 549.4 120.6 541 129.4 539.7 130.7 537.8 130.2 525.7 127.2 523.8 126.8 523.3 125 519.9 113.3 519.3 111.5 520.7 109.9 529.2 101.1 530.5 99.7 532.3 100.2Z" fill="rgba(51, 121, 194, 0.58)"></path><path d="M1289.3 533.5L1305.8 522.1 1307.4 535.5C1307.4 537 1308.9 538.4 1310.9 538.6 1312.6 538 1314 536.5 1313.9 535.1L1312.3 517.4 1327.7 506.9 1330.8 542.9C1331.1 545.2 1332.6 546.6 1334.3 546 1336.3 546.2 1337.7 544.7 1337.3 542.4L1333.9 502.7 1347.7 492.9 1383.1 509.4 1384.6 524.2 1349.5 548.1C1349.3 548.7 1349 549.3 1348.7 549.8 1348.4 550.4 1348.5 551.9 1348.8 552.7 1350 554.7 1352 554.9 1353.4 553.4L1385.4 531.6 1386.8 549.9 1370.8 561.5C1370.2 561.3 1370 561.8 1369.7 562.4 1369.1 563.6 1369.2 565 1370.1 566.1 1371 567.3 1373 567.5 1374.7 566.9L1387.6 557.3 1389.7 580.2C1389.7 581.6 1391.2 583 1393.2 583.2 1394.9 582.6 1396.3 581.1 1396.2 579.7L1394.2 558.3 1406.4 564C1408.1 564.8 1410.1 563.6 1410.6 562.4 1411.4 560.7 1411.1 558.4 1409.3 557.6L1393.7 550.3 1392.3 532 1424.8 547.1C1426.5 547.9 1428.2 547.3 1429.1 545.6 1429.9 543.8 1429.2 542.1 1427.5 541.3L1391.5 524.6 1389.7 508.9 1421.9 486.5 1435.3 492.7 1439 533.3C1438.8 535.3 1440.8 536.9 1442.5 536.3 1444.5 536.5 1445.4 534.8 1445.6 532.8L1442.3 495.9 1459.1 503.8 1460.5 522.1C1460.5 523.5 1462.6 525.2 1464 525.1S1467.1 523 1467.3 521L1466 507 1486.4 516.5C1488.1 517.3 1490.1 516.1 1490.9 514.3 1491.4 513.2 1491.1 510.9 1489.3 510.1L1469 500.6 1480.8 492C1481.9 491.1 1482.7 489.4 1481.5 487.4 1480.6 486.3 1478 485.8 1476.9 486.7L1462.1 497.4 1445.2 489.6 1475.6 468.4C1476.9 466.9 1477.8 465.2 1476.6 463.2 1475.7 462.1 1473.1 461.6 1472 462.5L1438.3 486.3 1424.9 480.1 1421.2 441 1434.5 432.3 1470.4 449.1C1472.2 449.9 1473.9 449.2 1474.7 447.5 1475.5 445.8 1475.1 443.5 1473.4 442.7L1440.9 427.6 1455.8 416.8 1471.4 424.1C1473.2 424.9 1474.9 424.3 1475.7 422.6 1476.5 420.8 1475.9 419.1 1474.1 418.3L1462 412.6 1479.6 400.4C1480.8 399.5 1481.3 396.9 1480.4 395.8 1478.9 394.4 1477.2 393.6 1475.8 395.1L1457.2 407.6 1455.9 392.2C1455.3 390.5 1453.8 389.1 1452.4 389.1 1451 389.2 1449.9 390.1 1449.3 391.2 1449.3 391.2 1449.1 391.8 1449.4 392.7L1450.8 412.4 1435.9 423.1 1432 384.6C1432.2 382.6 1430.7 381.2 1428.4 381.5 1427.6 381.8 1426.7 382.1 1426.2 383.3 1425.9 383.9 1425.7 384.5 1425.4 385L1429.7 427.3 1417.4 435.7 1382 419.2 1380.6 402.3 1413.2 379.4C1415.2 378.2 1415.4 376.2 1413.9 374.8 1413.3 373.1 1411.3 372.8 1409.3 374L1379.9 394.9 1377.9 376.4 1392.5 366.2C1393.6 365.3 1393.9 363.3 1393.2 361.6 1391.8 360.2 1390 359.4 1388.6 360.9L1377.4 368.4 1375.4 348.4C1375.6 346.4 1373.9 345.5 1371.9 345.3 1371 345.6 1369.9 346.5 1369.4 347.7 1369.4 347.7 1369.1 348.3 1368.8 348.8L1370.9 370.3 1356.3 363.5C1355.2 363 1352.9 363.3 1352.1 365.1 1351.3 366.8 1352.5 368.8 1353.6 369.3L1371.6 377.7 1373.6 396.2 1338.2 379.8C1336.5 379 1334.5 380.2 1333.7 381.9S1333.5 385.3 1335.2 386.2L1374.1 404.2 1375.4 419.7 1343.1 442.1 1328 435 1324.6 393.9C1323.9 392.2 1322.5 390.8 1320.5 390.6 1319.6 390.9 1318.5 391.8 1317.9 392.9 1317.7 393.5 1317.4 394.1 1317.7 394.9L1321 431.8 1304.2 424 1302.3 405.4C1302.2 404 1300.8 402.6 1298.7 402.4 1297 403 1295.7 404.4 1295.7 405.9L1297.3 420.7 1278.7 412.1C1277.5 411.5 1275 412.5 1274.4 413.6 1273.6 415.4 1274.6 417.9 1275.7 418.5L1294.3 427.1 1282.2 434.9C1281.9 435.5 1281.7 436.1 1281.4 436.6 1280.8 437.8 1280.9 439.2 1281.2 440.1 1282.7 441.5 1284.7 441.7 1286.4 441.1L1301.3 430.3 1318.1 438.2 1287.8 459.4C1285.8 460.6 1285.6 462.6 1286.4 463.7 1287.6 465.7 1289.7 465.9 1291.4 465.3L1325 441.4 1340.1 448.4 1343.8 487.6 1331.2 496.5 1292.3 478.4C1290.6 477.6 1288.9 478.2 1288 480 1287.2 481.7 1287.9 483.4 1289.6 484.2L1325 500.7 1309.5 511.1 1291.6 502.8C1290.4 502.2 1287.8 503.2 1287 504.9 1286.2 506.6 1287.4 508.6 1288.6 509.2L1303.1 515.9 1285.4 528.1C1285.1 528.7 1285.1 528.7 1284.9 529.3 1284.3 530.5 1284.4 531.9 1284.7 532.7 1286.1 534.1 1288.1 534.4 1289.3 533.5ZM1347.1 451.7L1347 447.4 1350.1 445.3 1376.2 427.1 1379.3 425 1382.8 426.6 1411.2 439.8 1414.7 441.5 1415.1 445.2 1418 476.9 1418.3 480.6 1415 483.3 1389.1 500.9 1385.8 503.6 1382.3 501.9 1353.9 488.7 1350.4 487.1 1350.3 482.8 1347.1 451.7Z" fill="rgba(51, 121, 194, 0.58)"></path><path d="M1074.6 261.5L1062.9 253.9 1070.2 249.7C1071 249.3 1071.4 248.2 1071.1 247 1070.3 246.1 1069.1 245.7 1068.3 246.5L1058.9 251.4 1049.5 245.8 1069.1 235.7C1069.9 234.9 1070.3 233.7 1070 232.9 1069.2 231.7 1068 231.2 1067.2 232L1045.6 243.3 1031.5 234.4 1049.3 227.4 1032 219.2 1046.7 211.3 1067.4 224C1067.4 224.4 1067.8 224.4 1068.2 224.4 1069 224.5 1069.8 224.1 1070.3 223.3 1070.7 222.5 1070.3 221.3 1069.6 220.5L1050.7 209.1 1060.5 204.2 1069.5 209.7C1069.9 210.1 1070.3 210.1 1070.7 210.1 1071.1 210.1 1071.9 209.8 1072.3 209 1072.8 208.2 1072.4 207 1071.6 206.5L1064.6 201.9 1076.8 195.1C1078 194.8 1078.1 193.6 1077.7 192.3 1077.3 191.5 1076.1 191.1 1074.9 191.8L1062.7 198.2 1063 189.9C1063 188.7 1061.8 187.8 1061 187.8 1059.8 187.7 1059 188.5 1059 189.7L1058.6 200.5 1048.9 205.4 1049.6 183.8C1049.6 182.6 1048.8 181.8 1047.6 181.7 1046.8 181.7 1045.6 182.5 1045.6 183.7L1044.8 207.7 1030.1 215.6 1032.7 196.9 1017.2 207.5 1017.7 190.8 1038.9 179.4C1040.1 178.7 1040.2 177.5 1039.8 176.7 1039.4 175.9 1038.2 175.4 1037 175.8L1017.9 186.4 1018.2 175.6 1027.6 170.3C1028.8 169.9 1029.3 168.7 1028.5 167.5 1028.1 166.7 1026.9 166.2 1025.7 167L1018.4 170.8 1018.9 156.8C1018.9 155.6 1018.1 154.7 1016.9 154.7S1014.9 155.4 1014.9 156.6L1014.4 170.6 1007.3 166.4C1006.2 165.6 1004.9 165.9 1004.5 166.7 1003.7 167.9 1004 169.1 1005.2 169.5L1014.2 175.4 1013.9 186.2 995.5 174.4C994.3 174 993.1 174.3 992.6 175.1 991.8 176.3 992.1 177.5 993.3 177.9L1013.7 190.6 1013.2 207.4 998.3 195.7 999.7 214.6 985.6 205.7 986.4 181.7C986.4 180.5 985.3 179.7 984.5 179.6 983.3 179.6 982.4 180.4 982.4 181.6L981.7 203.6 972.3 197.6 972.6 186.9C972.7 185.7 971.9 184.8 970.7 184.8 969.9 184.8 968.7 185.5 968.6 186.7L968.4 195.1 956.6 187.9C955.4 187.1 954.2 187.4 953.8 188.6 953.3 189.4 953.3 190.6 954.5 191.1L966.2 198.6 958.9 202.8C958.1 203.2 957.6 204.4 958 205.2 958.4 206 959.2 206.4 959.6 206.4 960 206.4 960.4 206.5 960.8 206.1L970.2 201.2 979.6 206.7 960 216.9C959.2 217.6 958.8 218.8 959.1 219.6 959.5 220.4 960.3 220.9 961.1 220.9 961.5 220.9 961.5 220.9 961.9 220.5L983.5 209.2 997.6 218.1 979.8 225.1 997.1 233.3 982.4 241.2 961.6 228.5C960.9 228.1 959.7 228 958.8 229.2 958.4 230 958.7 231.2 959.5 232L978.4 243.5 968.6 248.4 959.6 242.9C958.8 242 957.6 242.4 956.7 243.6 956.3 244.3 956.7 245.6 957.4 246.4L964.5 250.6 952.3 257.4C951.1 257.8 951 259 951.4 260.2 951.8 260.6 952.6 261 953 261 953.4 261.1 953.8 261.1 954.2 260.7L966.4 254.3 966.1 262.7C966.1 263.9 967.2 264.7 968 264.7L968 264.7C969.2 264.8 970.1 264 970.1 262.8L970.5 252 980.2 247.1 979.5 268.7C979.5 269.9 980.3 270.8 981.4 270.8S983.5 270.1 983.5 268.9L984.3 244.9 999 237 996.4 255.7 1011.9 245 1011.4 261.8 990.2 273.1C989 273.8 988.9 275 989.3 275.9 989.7 276.7 990.8 277.1 992.1 276.7L1011.2 266.6 1010.9 277 1001.5 282.3C1000.3 282.6 999.8 283.8 1000.6 285 1001 285.8 1002.1 286.3 1003.4 285.9L1010.7 281.8 1010.2 295.8C1010.2 297 1011 297.8 1012.2 297.8S1014.2 297.1 1014.2 295.9L1014.7 281.9 1021.8 286.1C1022.1 286.5 1022.5 286.6 1022.9 286.6 1023.7 286.6 1024.2 286.2 1024.6 285.8 1025.4 284.7 1025.1 283.4 1023.9 283L1014.9 277.1 1015.2 266.3 1033.6 278.1C1034 278.1 1034.4 278.2 1034.8 278.2 1035.6 278.2 1036 277.8 1036.5 277.4 1037.3 276.2 1036.9 275 1035.8 274.6L1015.4 261.9 1015.9 245.1 1030.7 256.8 1029.4 238 1043.5 246.8 1042.7 270.8C1042.6 272 1043.8 272.9 1044.6 272.9 1045.8 272.9 1046.6 272.2 1046.7 271L1047.4 249.4 1056.8 254.9 1056.5 265.7C1056.4 266.9 1057.2 267.7 1058.4 267.7S1060.4 267 1060.5 265.8L1060.7 257.4 1072.5 264.6C1072.9 265 1073.3 265 1073.7 265 1074.1 265.1 1074.9 264.7 1075.3 263.9 1075.8 263.1 1075.8 261.9 1074.6 261.5ZM1026.2 248.3L1014.1 238.7 1001.4 247.4 1003.6 231.9 989.8 225.4 1004 219.5 1002.9 204.3 1015 213.9 1027.7 205.1 1025.6 220.2 1039.3 227.1 1025.1 232.6 1026.2 248.3Z" fill="rgba(51, 121, 194, 0.58)"></path><path d="M1370.2 185.2L1357.9 178.5 1364.9 173.8C1365.7 173.4 1366 172.2 1365.6 171 1364.7 170.2 1363.5 169.9 1362.7 170.7L1353.8 176.3 1344 171.5 1362.7 159.9C1363.5 159.1 1363.8 157.9 1363.4 157.1 1362.5 155.9 1361.3 155.6 1360.5 156.4L1339.9 169.3 1325.1 161.5 1342.4 153.2 1324.5 146.3 1338.5 137.3 1360.2 148.4C1360.2 148.8 1360.6 148.8 1361 148.8 1361.8 148.7 1362.6 148.3 1363 147.5 1363.3 146.7 1362.9 145.5 1362 144.7L1342.4 134.7 1351.8 129.1 1361.2 133.9C1361.6 134.3 1362 134.3 1362.4 134.3 1362.8 134.3 1363.6 133.8 1364 133 1364.3 132.2 1363.9 131 1363.1 130.7L1355.7 126.6 1367.4 118.9C1368.5 118.4 1368.5 117.2 1368 116 1367.6 115.3 1366.4 114.9 1365.2 115.8L1353.5 123.1 1353.2 114.7C1353.1 113.5 1351.9 112.7 1351.1 112.7 1349.9 112.8 1349.1 113.6 1349.2 114.8L1349.6 125.6 1340.3 131.2 1339.3 109.6C1339.3 108.4 1338.5 107.7 1337.3 107.7 1336.5 107.8 1335.3 108.6 1335.4 109.8L1336.4 133.8 1322.3 142.8 1323.5 123.9 1308.8 135.8 1308.1 119 1328.4 106.1C1329.6 105.3 1329.5 104.1 1329.1 103.3 1328.6 102.5 1327.4 102.1 1326.2 102.6L1307.9 114.6 1307.5 103.8 1316.4 97.8C1317.6 97.3 1318 96.1 1317.1 95 1316.7 94.2 1315.5 93.8 1314.3 94.7L1307.3 99 1306.7 85C1306.6 83.8 1305.8 83 1304.6 83.1S1302.6 84 1302.7 85.2L1303.3 99.2 1295.9 95.5C1294.7 94.7 1293.5 95.2 1293.1 96 1292.4 97.2 1292.8 98.4 1294 98.7L1303.5 104 1303.9 114.7 1284.7 104.3C1283.5 104 1282.3 104.4 1281.9 105.3 1281.2 106.5 1281.6 107.7 1282.8 108L1304.1 119.1 1304.8 135.9 1289.2 125.4 1292 144.1 1277.2 136.3 1276.2 112.3C1276.2 111.1 1274.9 110.4 1274.1 110.4 1272.9 110.4 1272.2 111.3 1272.2 112.5L1273.1 134.5 1263.3 129.3 1262.9 118.5C1262.8 117.3 1262 116.5 1260.8 116.6 1260 116.6 1258.8 117.4 1258.9 118.6L1259.2 127 1246.9 120.8C1245.7 120 1244.5 120.5 1244.2 121.7 1243.8 122.5 1243.9 123.7 1245.1 124L1257.4 130.7 1250.4 135.4C1249.6 135.9 1249.2 137.1 1249.7 137.9 1250.1 138.6 1250.9 139 1251.3 139 1251.7 139 1252.1 139 1252.5 138.5L1261.5 133 1271.3 137.7 1252.5 149.3C1251.8 150.2 1251.4 151.4 1251.9 152.2 1252.3 153 1253.1 153.3 1253.9 153.3 1254.3 153.3 1254.3 153.3 1254.7 152.9L1275.4 140 1290.1 147.8 1272.8 156.1 1290.8 162.9 1276.7 171.9 1255 160.8C1254.2 160.5 1253 160.5 1252.3 161.8 1251.9 162.6 1252.4 163.8 1253.2 164.5L1272.8 174.5 1263.5 180.1 1254 175.3C1253.2 174.5 1252 175 1251.3 176.2 1250.9 177 1251.4 178.2 1252.2 179L1259.6 182.7 1247.9 190.4C1246.7 190.8 1246.7 192 1247.2 193.2 1247.6 193.6 1248.4 194 1248.8 193.9 1249.2 193.9 1249.6 193.9 1250 193.5L1261.7 186.2 1262.1 194.6C1262.1 195.8 1263.3 196.5 1264.1 196.5L1264.1 196.5C1265.3 196.4 1266.1 195.6 1266.1 194.4L1265.6 183.6 1275 178 1275.9 199.6C1275.9 200.8 1276.8 201.6 1278 201.5S1279.9 200.6 1279.9 199.4L1278.9 175.5 1292.9 166.5 1291.7 185.3 1306.4 173.5 1307.1 190.3 1286.8 203.1C1285.7 204 1285.7 205.2 1286.2 206 1286.6 206.8 1287.8 207.1 1289 206.7L1307.3 195.1 1307.8 205.5 1298.8 211.4C1297.6 211.9 1297.3 213.1 1298.1 214.3 1298.6 215.1 1299.8 215.4 1301 215L1308 210.3 1308.6 224.2C1308.6 225.4 1309.4 226.2 1310.6 226.2S1312.6 225.3 1312.6 224.1L1312 210.1 1319.3 213.8C1319.7 214.2 1320.1 214.1 1320.5 214.1 1321.3 214.1 1321.7 213.7 1322.1 213.3 1322.9 212 1322.4 210.8 1321.2 210.5L1311.8 205.3 1311.3 194.5 1330.6 204.9C1331 204.9 1331.4 204.9 1331.8 204.8 1332.6 204.8 1332.9 204.4 1333.3 204 1334.1 202.7 1333.6 201.6 1332.4 201.2L1311.1 190.1 1310.4 173.3 1326.1 183.9 1323.3 165.2 1338 173 1339 196.9C1339.1 198.1 1340.3 198.9 1341.1 198.8 1342.3 198.8 1343.1 198 1343 196.8L1342.1 175.2 1351.9 180 1352.4 190.8C1352.4 192 1353.3 192.7 1354.5 192.7S1356.4 191.8 1356.4 190.6L1356 182.2 1368.3 188.5C1368.7 188.9 1369.1 188.9 1369.5 188.8 1369.9 188.8 1370.7 188.4 1371.1 187.6 1371.4 186.8 1371.4 185.6 1370.2 185.2ZM1320.9 175.7L1308.1 167 1296.1 176.7 1297.1 161.1 1282.8 155.7 1296.6 148.7 1294.3 133.6 1307.1 142.2 1319.1 132.5 1318.1 147.8 1332.4 153.6 1318.7 160.2 1320.9 175.7Z" fill="rgba(51, 121, 194, 0.58)"></path><path d="M415 544.3L390 535.3 380.1 513.8 403.7 515.9 420.5 536.4C420.5 536.4 420.8 536.6 420.8 536.6 421.3 537 422.2 536.8 422.8 536.5 423.7 535.9 423.7 534.7 422.9 534.2L408.1 516.3 419.5 517.3 426.1 525.1C426.1 525.1 426.4 525.3 426.4 525.3 426.9 525.7 427.8 525.5 428.5 525.2 429.3 524.6 429.3 523.4 428.5 522.8L424.1 517.4 432.5 518.2C433.2 518.4 434.2 517.5 434.3 516.8 434.6 515.8 433.6 515.1 432.9 515L424.5 514.1 429.9 509.7C430.7 509.1 430.8 508 430 507.4 429.4 506.6 428.2 506.6 427.7 507.4L419.9 514 408.6 512.8 426.5 497.9C427.3 497.3 427.3 496.2 426.5 495.6 425.9 494.8 424.8 494.8 424.2 495.6L403.7 512.4 380.2 510.3 394 490.7 420.3 486.2C421.2 486 421.8 485.2 421.6 484.3 421.4 483.4 420.7 482.9 419.8 483L396.6 487.1 403.2 477.6 413 475.9C413.9 475.8 414.5 475 414.3 474.1 414.2 473.2 413.4 472.7 412.5 472.8L405.8 474 411 466.6C411.8 466 411.4 465 410.6 464.4 409.8 463.9 408.9 464 408.3 464.8L403.5 471.6 402.4 464.9C402.2 464 401.4 463.5 400.6 463.6S399.1 464.6 399.3 465.5L401 475.3 394.3 484.7 390.3 461.5C390.2 460.6 389.4 460.1 388.5 460.2 387.6 460.4 387 461.1 387.2 462L391.8 488.3 378.1 507.7 368.2 486.2 377.1 462C377.4 461 376.8 460.2 376 459.6 375 459.3 374.2 459.9 373.6 460.7L365.7 482.5 360.9 472.1 364.5 462.5C364.8 461.6 364.2 460.7 363.4 460.2 362.5 459.9 361.7 460.5 361.3 461L359 467.6 355.4 460C355 459.3 354 458.6 353.2 459.2 352.4 459.8 351.8 460.6 352.4 461.4L356 469.1 349.4 466.8C348.5 466.5 347.6 467.1 347.3 467.6 347.2 468.3 347.3 469.2 347.8 469.6 347.8 469.6 348.1 469.7 348.1 469.7L357.7 473.4 362.5 483.8 340.7 475.8C339.7 475.6 338.9 476.2 338.5 476.7 338.4 477.4 338.6 478.3 339.1 478.7 339.1 478.7 339.4 478.8 339.4 478.8L364.3 487.8 374.3 509.3 350.7 507.2 333.8 486.7C333.2 485.9 332.1 485.8 331.5 486.6 330.7 487.2 330.7 488.4 331.5 488.9L346.3 506.8 334.8 505.8 328.2 498C327.6 497.2 326.5 497.1 325.9 497.9 325.1 498.5 325.1 499.7 325.8 500.2L330.2 505.7 321.8 504.8C321.1 504.7 320.1 505.6 320 506.3 319.9 507 320.2 507.6 320.8 508 321 508.2 321.3 508.4 321.7 508.3L330.1 509.1 324.7 513.5C323.9 514.1 323.9 515.3 324.6 515.8 324.6 515.8 324.9 516 324.9 516 325.4 516.4 326.3 516.2 326.9 515.9L334.8 509.3 346.2 510.3 328.3 525.1C327.5 525.7 327.5 526.8 328.3 527.4 328.3 527.4 328.5 527.6 328.5 527.6 329 527.9 329.9 527.8 330.6 527.4L351.1 510.6 374.6 512.7 361 532 334.7 536.6C333.8 536.8 333.2 537.5 333.4 538.4 333.5 539.3 334.3 539.9 335.2 539.7L358.2 536 351.6 545.4 341.8 547.1C340.9 547.2 340.3 548 340.5 548.9S341.4 550.4 342.3 550.2L349 549 344.2 555.8C343.7 556.6 343.8 557.5 344.6 558.1 345.4 558.6 346.3 558.5 346.8 557.7L351.6 550.9 352.8 557.6C352.9 558 352.9 558.5 353.5 558.8S354.4 559.1 354.9 559C355.8 558.9 356.3 558.1 356.2 557.2L354.5 547.4 361.1 538 365.1 561.2C365.2 561.6 365.3 562.1 365.8 562.4 366.1 562.6 366.8 562.7 367.2 562.6 368.1 562.5 368.7 561.7 368.5 560.8L363.9 534.5 377.6 515.2 387.5 536.6 378.5 561.6C378.4 562.3 378.6 563.2 379.1 563.6 379.1 563.6 379.3 563.8 379.3 563.8 380.3 564.1 381.1 563.4 381.5 562.9L389.4 541.1 394.2 551.5 390.6 561.1C390.5 561.8 390.6 562.7 391.2 563.1 391.2 563.1 391.4 563.3 391.4 563.3 392.4 563.6 393.2 563 393.6 562.4L395.9 555.8 399.5 563.5C399.8 563.7 399.8 564.1 400.1 564.3 400.6 564.7 401.3 564.8 402 564.4 402.8 563.8 403.3 563 402.7 562.2L399.1 554.6 405.7 556.9C406.7 557.2 407.5 556.6 407.9 556.1 408.2 555.1 407.6 554.3 407 553.9L397.4 550.3 392.7 539.9 414.5 547.8C415.4 548.1 416.2 547.5 416.6 547 416.4 545.6 416 544.5 415 544.3Z" fill="rgba(51, 121, 194, 0.58)"></path><path d="M101.2 343.7L98.1 332.9 104.7 334.3C105.4 334.5 106.3 334 106.7 333.1 106.7 332.2 106.2 331.3 105.3 331.3L97.1 329.4 94.3 321.1 111.4 325.2C112.3 325.2 113.2 324.7 113.4 324 113.6 322.9 113.1 322 112.2 322L93.3 317.5 89.4 304.7 103.9 309.9 97.7 295.8 110.7 298.8 116.6 317.4C116.4 317.6 116.6 317.8 116.9 318 117.3 318.5 118 318.7 118.7 318.4 119.3 318.2 119.8 317.3 119.7 316.3L114.4 299.6 122.9 301.8 125.4 309.8C125.4 310.3 125.6 310.5 125.9 310.7 126.1 310.9 126.8 311.1 127.5 310.9 128.1 310.6 128.6 309.7 128.3 309L126.5 302.5 137.4 304.9C138.4 305.3 139 304.6 139.4 303.7 139.6 303 139.2 302.1 138 301.9L127.3 299.3 131.9 294.4C132.5 293.7 132.3 292.6 131.8 292.2 131.1 291.5 130.2 291.5 129.5 292.2L123.6 298.6 115.2 296.4 127 283.7C127.6 283 127.6 282.1 126.9 281.5 126.4 281 125.3 280.8 124.6 281.5L111.5 295.6 98.5 292.6 110 282.7 95 281 104.1 271.2 122.8 275.5C124 275.7 124.6 275 124.8 274.3 125 273.6 124.6 272.7 123.6 272.3L106.5 268.6 112.4 262.3 120.9 264C121.8 264.4 122.7 263.9 122.9 262.8 123.1 262.1 122.6 261.2 121.4 261L115 259.5 122.7 251.3C123.3 250.6 123.3 249.7 122.6 249S121 248.4 120.3 249.1L112.7 257.3 110.7 251C110.4 249.9 109.5 249.5 108.8 249.7 107.7 250 107.3 250.9 107.8 251.8L110.1 260.1 104.2 266.4 99.3 249.6C98.8 248.7 97.9 248.3 97.2 248.5 96.1 248.8 95.7 249.7 96.2 250.6L101.8 269 92.6 278.8 89.8 264 80.8 276 76.9 263.3 90 249.2C90.7 248.5 90.4 247.4 89.9 247 89.2 246.3 88.3 246.3 87.7 247.1L75.7 259.9 73.1 251.4 79 245.1C79.7 244.4 79.6 243.5 78.9 242.8 78.4 242.4 77.3 242.2 76.7 242.9L72.1 247.8 68.8 237.3C68.5 236.2 67.6 235.7 66.7 236.2 66 236.5 65.4 237.2 65.8 238.1L68.9 248.8 62.3 247.5C61.6 247.3 60.8 247.8 60.5 248.4 60.3 249.1 60.6 249.8 60.8 250 61.1 250.2 61.3 250.5 61.7 250.4L70 252.4 72.7 260.7 55.6 256.5C54.7 256.6 53.8 257.1 53.6 257.7 53.4 258.4 53.7 259.1 54.1 259.5 54.4 259.8 54.4 259.8 54.8 259.7L73.8 264.3 77.6 277.1 63.2 271.9 69.3 286 56.3 283 50.5 264.4C50.2 263.7 49.5 263.1 48.4 263.4 47.7 263.6 47.3 264.5 47.3 265.4L52.7 282.2 44.2 280 41.7 272C41.6 271.1 40.7 270.6 39.6 270.9 38.9 271.2 38.5 272.1 38.5 273L40.6 279.3 29.6 276.9C28.7 276.5 28 277.2 27.6 278.1 27.6 278.6 27.9 279.2 28.1 279.5 28.4 279.7 28.6 279.9 29 279.9L39.8 282.4 35.2 287.4C34.5 288.1 34.8 289.2 35.3 289.6L35.3 289.6C36 290.3 36.9 290.2 37.5 289.5L43.4 283.2 51.9 285.4 40.1 298.1C39.4 298.8 39.5 299.7 40.2 300.3S41.8 300.9 42.4 300.2L55.5 286.2 68.5 289.1 57.1 299.1 72.1 300.8 62.9 310.6 44.2 306.3C43.1 306.1 42.4 306.8 42.2 307.5 42 308.2 42.5 309.1 43.4 309.5L60.3 313.4 54.6 319.5 46.2 317.8C45.3 317.4 44.4 317.8 44.2 319 44 319.7 44.5 320.5 45.4 321L52 322.3 44.4 330.5C43.7 331.2 43.8 332.1 44.5 332.8S46.1 333.4 46.7 332.7L54.4 324.5 56.4 330.8C56.4 331.2 56.6 331.4 56.9 331.7 57.3 332.1 57.8 332.1 58.2 332.1 59.4 331.8 59.8 330.9 59.3 330L57 321.7 62.9 315.4 67.8 332.2C68 332.4 68.2 332.6 68.5 332.8 68.9 333.3 69.4 333.3 69.8 333.3 71 333 71.4 332.1 70.9 331.2L65.3 312.8 74.4 303 77.2 317.8 86.3 305.7 90.2 318.5 77.1 332.5C76.4 333.3 76.7 334.4 77.1 334.8 77.8 335.5 78.7 335.4 79.4 334.7L91.2 322.1 94 330.4 88.1 336.7C87.4 337.4 87.4 338.3 88.1 339S89.8 339.6 90.4 338.9L95 334 98.3 344.5C98.3 344.9 98.5 345.2 98.8 345.4 99 345.6 99.7 345.8 100.4 345.6 101 345.3 101.7 344.6 101.2 343.7ZM79 310.3L76.8 298.1 64.5 296.8 73.9 288.5 69 277.4 80.7 281.3 88.1 271.5 90.3 283.6 102.6 285 93.3 293 98 304.4 86.6 300.3 79 310.3Z" fill="rgba(51, 121, 194, 0.58)"></path><path d="M147.1 456L143.7 488.9 136.7 494.8 117.6 487.7 116 478.5 135.5 451.6C135.6 451.2 135.6 451.2 135.7 450.9 136 450.1 135.9 449.2 134.9 448.4 133.8 448 132.9 448.1 132.1 449.1L115.2 472.6 112.8 458.5 120.1 448C120.1 448 120.3 447.6 120.3 447.6 120.6 446.9 120.5 446 119.5 445.2 118.9 444.5 117.5 444.9 116.7 445.8L111.6 452.5 110 442C109.9 441.2 108.9 440.4 107.6 440.3S105.8 441.8 105.8 443L107.5 453.1 100.8 448.4C99.8 447.6 98.4 447.9 97.6 448.9 97.3 449.7 97.2 450.9 98.2 451.7L108.7 459.1 111 473.6 87.4 456.6C86.4 455.9 85 456.2 84.4 456.8 83.9 457.9 83.9 459.2 84.9 460L111.9 479.1 113.4 488.6 98 501.2 89 497.8 75.1 467.8C74.6 466.8 73.5 466.4 72.5 466.8S71 468.4 71.5 469.5L83.8 495.9 69.9 490.7 64.8 479.3C64.3 478.3 63.2 477.9 61.8 478.2S60.3 479.8 60.8 480.8L64.7 488.7 54.6 484.9C53.5 484.5 52.3 485.3 51.9 486.5 51.4 487.6 51.9 488.6 53 489L63.1 492.8 55.4 496.3C54 496.7 53.6 497.8 54.4 499 54.9 500 56 500.4 57.1 499.9L68.4 494.8 82.2 500 55.6 511.8C54.6 512.3 54 513.7 54.5 514.8S56.1 516.2 57.1 515.8L87.5 502 96.5 505.3 99.7 525.3 92.3 531.1 59.4 527.7C58.2 527.7 57.4 528.7 57 529.8 56.9 531.1 57.9 531.9 59 532.3L87.9 535 76.8 544.1 64.1 542.7C62.8 542.7 62 543.7 61.6 544.8 61.7 545.7 62.5 546.9 63.8 546.9L72 547.8 63.9 554.6C63.2 555.2 63.2 556.5 63.6 557.5 64.6 558.3 65.9 558.4 66.5 557.8L74.6 551 73.9 559.7C74 560.6 74.9 561.7 75.8 561.7 76.9 562.1 77.5 561.5 78 560.3 78 560.3 78.1 560 78.1 560L79.5 547.2 90.6 538.2 87.8 567C87.8 568.3 88.3 569.3 89.5 569.4 90.8 569.4 91.4 568.8 91.7 568.1 91.9 567.7 91.9 567.7 91.9 567.7L95 534.3 102.3 528.5 121.4 535.6 122.7 544.7 103.5 572.1C102.8 572.7 103.1 574.1 103.8 574.7 104.7 575.5 106.1 575.2 106.9 574.2L123.9 550.7 126.3 564.8 118.9 575.3C118.1 576.3 118.1 577.5 119.2 578 120.2 578.8 121.6 578.4 122.2 577.8L127.1 570.7 128.7 581.1C129.2 582.1 130.2 582.9 131.4 583 131.9 582.7 132.6 582.1 132.9 581.4 133 581 133 581 132.8 580.5L131.1 570.1 138.3 574.9C139.3 575.7 140.3 575.2 141 574.6 141.1 574.2 141.1 574.2 141.3 573.9 141.5 573.1 141.4 572.2 140.8 571.6L130.3 564.2 128 550.1 151.5 567C152.6 567.4 153.9 567.5 154.3 566.4 154.8 566.1 154.8 566.1 155 565.8 155.3 565 154.8 564 154.2 563.3L126.8 544.1 125.5 535 141 522.1 149.7 525.3 163.4 555.7C163.9 556.7 165.4 557.3 166.4 556.8S168 554.9 167.6 553.8L155.3 527.4 168.7 532.5 174.3 543.9C174.7 545 175.9 545.4 176.9 544.9 177.9 544.5 178.3 543.3 177.9 542.3L174.4 534.6 184.5 538.4C185.2 538.7 186.6 538.3 187.1 537.2 187.5 536.1 186.8 534.5 186 534.3L175.9 530.5 183.6 527C184.2 526.7 184.7 526.5 184.8 526.1 185.1 525.4 184.9 524.9 184.6 524.3 184.2 523.3 183 522.9 182 523.4L170.3 528.4 156.8 523.3 183.5 511.5C184 511.3 184.1 510.9 184.4 510.2 184.5 509.8 184.7 509.4 184.4 508.9 184 507.9 182.5 507.3 181.4 507.8L151.2 521.2 142.6 518 139.3 498.3 146.3 492 179.6 495.5C180.5 495.4 181.5 495 181.8 494.2 182 493.9 182 493.9 181.6 493.7 182 492.6 181.2 491.4 179.9 491.4L151 488.6 162.3 479.2 175 480.6C175.9 480.5 176.5 479.9 176.8 479.1 176.8 479.1 177 478.7 177 478.7 177.4 477.6 176.5 476.4 175.3 476.4L166.6 475.7 174.7 468.9C175.2 468.7 175.3 468.3 175.5 467.9 175.8 467.2 175.7 466.3 175.3 466.1 174.4 465 173.2 464.9 172.1 465.4L164 472.2 165 464C165 462.7 164.2 461.5 162.9 461.5 162 461.6 160.9 462.4 161 463.3L159.6 476.1 148.5 485.1 151.2 456.3C151.3 455 150.3 454.2 149.2 453.8 148.3 453.9 147.1 454.7 147.1 456ZM118.3 492.6L132.9 498.1 135.2 498.9 135.6 501.2 138.1 516.3 138.4 518.9 136.5 520.4 124.8 530.1 123 531.5 120.7 530.7 106.1 525.2 103.9 524.3 103.4 522.1 101 507 100.5 504.7 102.5 502.9 114.3 493.2 116.1 491.8 118.3 492.6Z" fill="rgba(51, 121, 194, 0.58)"></path><path d="M953 477.5L991.1 465.8 1022.3 482.7 992.1 501.3 953.4 491.9C953.4 491.9 953 491.9 953 491.9 952 491.9 951.1 492.9 950.6 493.9 950.2 495.3 951.2 496.8 952.6 496.7L986.5 504.9 971.8 513.9 956.8 510.5C956.8 510.5 956.4 510.5 956.4 510.5 955.4 510.6 954.5 511.5 954 512.5 953.6 514 954.6 515.4 956 515.3L966.2 517.9 955.3 524.5C954.4 525 954 526.9 954.5 527.9 955 529.3 956.9 529.2 957.8 528.7L968.7 522.2 966.1 532.3C965.7 533.8 966.7 535.2 968.1 535.2 969.6 535.6 971 534.6 970.9 533.2L974.4 518.2 989 509.6 980.8 543.4C980.4 544.9 981.4 546.3 982.8 546.3 984.3 546.7 985.7 545.7 985.7 544.3L995.1 505.6 1025.3 487 1026.4 522.9 998.9 552.1C997.9 553 998 554.5 998.9 555.4 999.9 556.3 1001.4 556.3 1002.3 555.3L1026.5 529.7 1027 546.9 1016.8 557.8C1015.9 558.8 1015.9 560.2 1016.9 561.1 1017.9 562.1 1019.3 562 1020.2 561L1027.2 553.6 1027.6 567.1C1027.2 568.5 1028.6 569.5 1030.1 569.4 1031.5 569.4 1032.5 568.4 1032.4 566.9L1032.1 554.5 1039.5 561.5C1040.4 562.4 1041.9 562.3 1042.8 561.4S1043.7 558.9 1042.7 558L1031.9 547.7 1031.4 530.5 1057 554.7C1058 555.6 1059.5 555.6 1060.4 554.6 1061.3 553.6 1061.3 552.2 1060.3 551.3L1031.2 523.8 1030.2 488.3 1061.4 505.1 1072.5 542.3C1073 543.7 1074.5 544.1 1075.9 544.1 1077.4 543.6 1077.8 542.1 1077.8 540.7L1067.7 507.3 1082.8 515.6 1087.1 530.3C1087.6 531.7 1089 532.2 1090.5 532.1 1091.9 531.6 1092.3 530.2 1092.3 529.2L1089.1 519.2 1100.4 525.1C1101.3 525.6 1103.3 525.5 1103.7 524.1 1104.1 522.6 1104.1 521.2 1102.6 520.8L1091.4 514.8 1101.4 511.7C1102.8 511.1 1103.3 509.7 1103.3 508.7 1102.7 507.8 1101.8 506.9 1100.8 506.9 1100.8 506.9 1100.3 506.9 1100.3 506.9L1085.6 511.2 1070.4 502.9 1103.8 492.9C1105.2 492.3 1105.6 490.9 1105.6 489.9 1105.1 489 1104.1 488.1 1103.1 488.1 1103.1 488.1 1102.7 488.1 1102.7 488.1L1064.6 499.8 1033.4 482.9 1063.6 464.2 1102.3 473.7C1103.7 474.1 1105.1 473.1 1105.1 471.7 1105.5 470.3 1104.5 468.8 1103.1 468.9L1069.2 460.7 1083.9 451.7 1098.8 455.1C1100.3 455.5 1101.7 454.5 1101.7 453.1 1102.1 451.6 1101.1 450.2 1099.7 450.2L1089.5 447.7 1100.4 441.1C1101.3 440.6 1101.7 438.7 1101.2 437.7 1100.7 436.8 1099.7 436.3 1098.8 436.3 1098.3 436.4 1097.8 436.4 1097.4 436.9L1086.5 443.4 1089.1 433.3C1089.5 431.8 1088.5 430.4 1087.1 430.4 1087.1 430.4 1086.6 430.5 1086.6 430.5 1085.6 430.5 1084.7 431.5 1084.3 432.4L1080.9 447.4 1066.2 456.5 1074.4 422.6C1074.8 421.2 1073.8 419.8 1072.4 419.8 1072.4 419.8 1071.9 419.8 1071.9 419.8 1070.9 419.9 1070 420.8 1069.6 421.8L1060.1 460.5 1029.9 479.1 1028.9 443.6 1056.4 414.5C1057.3 413.5 1057.3 412.1 1056.3 411.2 1055.3 410.2 1053.9 410.3 1052.9 411.3L1028.7 436.4 1028.2 419.2 1038.4 408.3C1039.4 407.3 1039.3 405.9 1038.3 404.9S1035.9 404.1 1035 405L1028 412.4 1027.6 400C1027.6 398.5 1026.6 397.6 1025.2 397.6 1023.7 397.7 1022.8 398.7 1022.8 400.1L1023.2 412.6 1015.8 405.6C1015.3 405.1 1014.8 404.7 1013.8 404.7S1012.4 405.2 1011.9 405.7C1011 406.7 1011.1 408.1 1012 409.1L1022.9 419.3 1023.4 436.6 997.7 412.4C997.2 411.9 996.7 411.4 995.8 411.4 995.3 411.5 994.4 412 993.9 412.5 993 413.4 993 414.9 994 415.8L1023.1 443.3 1024.1 478.8 992.9 461.9 981.3 423.9C980.7 422.9 979.8 422 978.8 422 978.8 422 978.3 422 978.3 422 976.9 422.6 976.5 424 976.5 425L986.6 458.3 971.4 450.1 967.2 435.3C966.7 434.4 965.7 433.4 964.7 433.5 964.7 433.5 964.2 433.5 964.2 433.5 962.8 434 962.4 435.5 962.4 436.4L965.6 446.4 954.4 440.5C953.9 440.5 953.4 440 952.9 440 951.9 440.1 951 440.6 950.6 441.6 950.1 443 950.2 444.4 951.6 444.9L962.8 450.8 952.8 454C951.4 454.5 951 455.9 951 456.9 951.5 458.3 953 458.8 953.9 458.7L968.7 454.5 983.8 462.7 950.5 472.8C949.1 473.3 948.6 474.7 948.6 475.7 950.1 477.1 951.6 478 953 477.5Z" fill="rgba(51, 121, 194, 0.58)"></path></g><defs><mask id="SvgjsMask1000"><rect width="1440" height="560" fill="#ffffff"></rect></mask><filter id="SvgjsFilter1001"><feGaussianBlur stdDeviation="1"></feGaussianBlur></filter></defs></svg>